# xmcd
#
# Track frame offsets: 
#        150
#        12650
#        29115
#        40907
#        51565
#        63105
#        77580
#        90377
#        106935
#        116662
#        128782
#        141522
#
# Disc length: 2047 seconds
#
# Revision: 2
# Processed by: cddbd v1.4PL0 Copyright (c) Steve Scherf et al.
# Submitted via: ExactAudioCopy v0.90b3
#
DISCID=a707fd0c
DTITLE=The Seldom Scene - Old Train
DYEAR=1900
DGENRE=Country
TTITLE0=Appalachian Rain
TTITLE1=Wait A Minute
TTITLE2=Different Roads
TTITLE3=Old Train
TTITLE4=Through The Bottom Of The Glass
TTITLE5=Old Crossroads
TTITLE6=Pan American
TTITLE7=Working On A Building
TTITLE8=Walk Through This World With Me
TTITLE9=Maybe You Will Change Your Mind (The Tie That Binds)
TTITLE10=Travelin' On And On
TTITLE11=C and O Canal
EXTD=
EXTT0=
EXTT1=
EXTT2=
EXTT3=
EXTT4=
EXTT5=
EXTT6=
EXTT7=
EXTT8=
EXTT9=
EXTT10=
EXTT11=
PLAYORDER=
